<?xml version="1.0" standalone="no"?>
<!DOCTYPE svg PUBLIC "-//W3C//DTD SVG 20010904//EN"
 "http://www.w3.org/TR/2001/REC-SVG-20010904/DTD/svg10.dtd">
<svg version="1.0" xmlns="http://www.w3.org/2000/svg"
 width="200.000000pt" height="200.000000pt" viewBox="0 0 200.000000 200.000000"
 preserveAspectRatio="xMidYMid meet">

<g transform="translate(0.000000,200.000000) scale(0.100000,-0.100000)"
fill="#000000" stroke="none">
<path d="M0 1000 l0 -1000 1000 0 1000 0 0 1000 0 1000 -1000 0 -1000 0 0
-1000z m750 388 l5 -197 140 197 140 197 115 0 c98 0 115 -2 114 -16 -1 -8
-70 -113 -154 -233 l-152 -217 28 -42 c26 -39 28 -40 40 -22 7 11 55 79 107
150 l93 130 165 0 164 0 3 -107 3 -108 -36 0 -35 0 0 -245 0 -245 35 0 36 0
-3 -107 -3 -108 -145 0 -145 0 -3 117 -3 118 -113 0 c-95 0 -115 3 -120 16 -3
9 -10 14 -16 12 -5 -2 -52 -61 -103 -133 l-93 -130 -117 -3 c-64 -1 -117 1
-117 5 1 4 36 58 80 118 l78 110 -146 5 -147 5 0 115 0 115 33 3 32 3 0 229 0
229 -32 3 -33 3 -3 95 c-5 152 -17 141 156 138 l147 -3 5 -197z"/>
<path d="M750 860 c0 -106 2 -191 4 -189 2 2 33 45 69 96 l66 92 -66 93 c-36
51 -67 95 -69 97 -2 2 -4 -83 -4 -189z"/>
<path d="M1202 965 c-28 -41 -55 -80 -58 -88 -3 -9 19 -51 53 -100 l58 -85 3
90 c1 49 1 127 0 173 l-3 83 -53 -73z"/>
</g>
</svg>
